# xmcd CD database file
#
# Track frame offsets:
#	150
#	15461
#	29740
#	44663
#	59163
#	74115
#	87730
#	100023
#	114952
#	128457
#	142246
#	157185
#	169465
#	182901
#	194961
#	206659
#	220571
#
# Disc length: 3119 seconds
#
# Revision: 0
# Processed by: cddbd v1.5PL3 Copyright (c) Steve Scherf et al.
# Submitted via: CDex 1.50beta10
#
DISCID=170c2d11
DTITLE=Louis Armstrong - Masters of Jazz
DYEAR=2002
DGENRE=Jazz
TTITLE0=Ain't Misbehavin'
TTITLE1=That's my home
TTITLE2=West end blues
TTITLE3=The firm fram sauce (with Ella Fitzgerald)
TTITLE4=St. James infirmary
TTITLE5=All of me
TTITLE6=Jeepers Creepers
TTITLE7=Dinah
TTITLE8=Flat foot floogie (with The Mills Brothers)
TTITLE9=Potato head blues
TTITLE10=Sweethearts on parade
TTITLE11=When the saints go marching in
TTITLE12=I wonder
TTITLE13=La cucaracha
TTITLE14=It's wonderful
TTITLE15=Hear me talkin' to ya
TTITLE16=I'll be glad when you're dead you rascal you
EXTD=YEAR: 2002
EXTT0=
EXTT1=
EXTT2=
EXTT3=
EXTT4=
EXTT5=
EXTT6=
EXTT7=
EXTT8=
EXTT9=
EXTT10=
EXTT11=
EXTT12=
EXTT13=
EXTT14=
EXTT15=
EXTT16=
PLAYORDER=
